<svg width="20" height="19" viewBox="0 0 20 19" fill="none" xmlns="http://www.w3.org/2000/svg">
<path d="M9.99922 0.424756C8.21919 0.424756 6.47913 0.952596 4.99909 1.94153C3.51905 2.93046 2.3655 4.33607 1.68431 5.9806C1.00312 7.62514 0.824889 9.43474 1.17216 11.1806C1.51942 12.9264 2.37659 14.53 3.63526 15.7887C4.89393 17.0474 6.49758 17.9045 8.24341 18.2518C9.98924 18.5991 11.7988 18.4209 13.4434 17.7397C15.0879 17.0585 16.4935 15.9049 17.4824 14.4249C18.4714 12.9448 18.9992 11.2048 18.9992 9.42475C18.9987 7.03797 18.0503 4.7491 16.3626 3.06139C14.6749 1.37368 12.386 0.425293 9.99922 0.424756ZM9.99922 17.4873C8.4046 17.4873 6.84579 17.0144 5.51991 16.1285C4.19404 15.2426 3.16064 13.9834 2.5504 12.5102C1.94017 11.0369 1.78051 9.41581 2.0916 7.85183C2.40269 6.28785 3.17058 4.85124 4.29814 3.72368C5.42571 2.59611 6.86232 1.82823 8.4263 1.51713C9.99028 1.20604 11.6114 1.3657 13.0846 1.97594C14.5579 2.58617 15.8171 3.61957 16.703 4.94545C17.5889 6.27132 18.0618 7.83013 18.0618 9.42475C18.0585 11.5621 17.2081 13.611 15.6967 15.1223C14.1854 16.6336 12.1366 17.4841 9.99922 17.4873Z" fill="#0A3040"/>
<path d="M10.5273 8.9422V5.7086C11.0858 5.80912 11.6098 6.07289 12.0445 6.47244C12.0853 6.51424 12.1332 6.54677 12.1854 6.56817C12.2375 6.58957 12.2931 6.59943 12.3487 6.59719C12.4044 6.59494 12.4591 6.58063 12.5097 6.55508C12.5603 6.52952 12.6059 6.49322 12.6438 6.44825C12.6817 6.40328 12.7112 6.35052 12.7306 6.29297C12.75 6.23543 12.759 6.17423 12.7569 6.11288C12.7549 6.05153 12.7419 5.99122 12.7188 5.93539C12.6956 5.87957 12.6627 5.82932 12.6219 5.78753C12.0347 5.21507 11.3032 4.85357 10.525 4.75125V3.89574C10.525 3.77081 10.4799 3.651 10.3998 3.56267C10.3197 3.47433 10.211 3.4247 10.0977 3.4247C9.98441 3.4247 9.87574 3.47433 9.79562 3.56267C9.7155 3.651 9.67049 3.77081 9.67049 3.89574V4.74361C8.21558 4.90911 7.19022 5.97085 7.19022 7.36105C7.19022 8.91674 8.80678 9.41324 9.67049 9.65258V13.2325C9.0077 13.067 8.08857 12.6418 7.72369 12.2649C7.64437 12.1775 7.5368 12.1284 7.42463 12.1284C7.31245 12.1284 7.20488 12.1775 7.12556 12.2649C7.04625 12.3524 7.00169 12.471 7.00169 12.5947C7.00169 12.7183 7.04625 12.8369 7.12556 12.9244C7.63824 13.4896 8.8368 14.032 9.66587 14.1745V14.9537C9.66587 15.0786 9.71088 15.1984 9.791 15.2867C9.87112 15.3751 9.97979 15.4247 10.0931 15.4247C10.2064 15.4247 10.3151 15.3751 10.3952 15.2867C10.4753 15.1984 10.5203 15.0786 10.5203 14.9537V14.1898C11.6104 14.0472 13.0006 13.3419 13.0006 11.7379C13.0375 10.4979 12.1323 9.48453 10.5273 8.9422ZM9.6728 8.68759C8.97999 8.47626 8.05624 8.12234 8.05624 7.36614C8.05624 6.37569 8.84835 5.83845 9.6728 5.69332V8.68759ZM10.5273 13.2707V9.93266C11.2963 10.2382 12.1438 10.806 12.1438 11.771C12.1738 12.8098 11.1277 13.1383 10.5273 13.2554V13.2707Z" fill="#0A3040"/>
<path fill-rule="evenodd" clip-rule="evenodd" d="M4.83242 1.69209C6.3618 0.670191 8.15985 0.124756 9.99922 0.124756C12.4655 0.125311 14.8308 1.1053 16.5747 2.84925C18.3187 4.59321 19.2987 6.95836 19.2992 9.42468C19.2992 11.264 18.7538 13.0622 17.7319 14.5916C16.71 16.1209 15.2575 17.3129 13.5582 18.0168C11.8588 18.7207 9.9889 18.9049 8.18488 18.5461C6.38086 18.1872 4.72376 17.3015 3.42313 16.0008C2.1225 14.7002 1.23676 13.0431 0.87792 11.2391C0.519077 9.43507 0.703248 7.56515 1.40714 5.8658C2.11104 4.16645 3.30304 2.71398 4.83242 1.69209ZM9.99915 0.724756C8.27848 0.724769 6.59645 1.23501 5.16576 2.19097C3.73505 3.14694 2.61995 4.50569 1.96147 6.09541C1.30299 7.68512 1.1307 9.4344 1.46639 11.122C1.80208 12.8097 2.63068 14.3599 3.84739 15.5766C5.06411 16.7933 6.6143 17.6219 8.30194 17.9576C9.98957 18.2933 11.7388 18.121 13.3286 17.4625C14.9183 16.804 16.277 15.6889 17.233 14.2582C18.189 12.8275 18.6992 11.1455 18.6992 9.42482M9.99915 0.724756C12.3064 0.725293 14.519 1.64207 16.1505 3.27352C17.7819 4.90497 18.6987 7.1176 18.6992 9.42482M12.9698 2.2531C11.5514 1.66557 9.99061 1.51185 8.48482 1.81137C6.97904 2.11089 5.59589 2.8502 4.51028 3.93581C3.42467 5.02142 2.68535 6.40457 2.38584 7.91036C2.08632 9.41614 2.24004 10.9769 2.82757 12.3953C3.4151 13.8138 4.41004 15.0261 5.68658 15.8791C6.963 16.7319 8.46364 17.1872 9.99877 17.1873C12.0567 17.1842 14.0294 16.3653 15.4846 14.9101C16.9398 13.455 17.7587 11.4822 17.7618 9.4243C17.7617 7.88917 17.3064 6.38854 16.4535 5.11212C15.6006 3.83557 14.3882 2.84063 12.9698 2.2531ZM8.36777 1.2229C9.98994 0.900227 11.6714 1.06583 13.1994 1.69877C14.7275 2.33171 16.0335 3.40356 16.9524 4.77877C17.8713 6.15399 18.3618 7.7708 18.3618 9.42475C18.3584 11.6415 17.4764 13.7669 15.9089 15.3344C14.3414 16.9019 12.2164 17.784 9.99967 17.7873C8.34572 17.7873 6.72845 17.2968 5.35324 16.3779C3.97803 15.4591 2.90618 14.153 2.27324 12.625C1.6403 11.0969 1.47469 9.41547 1.79736 7.7933C2.12003 6.17113 2.91649 4.68107 4.08601 3.51154C5.25553 2.34202 6.7456 1.54557 8.36777 1.2229ZM9.57341 3.36112C9.70702 3.2138 9.89487 3.1247 10.0977 3.1247C10.3006 3.1247 10.4884 3.21381 10.622 3.36112C10.7548 3.50746 10.825 3.70019 10.825 3.89574V4.49734C11.5716 4.64864 12.2654 5.02099 12.8313 5.57273L12.8366 5.57793C12.9049 5.64793 12.9586 5.73061 12.9958 5.82035C13.0331 5.91008 13.0536 6.00604 13.0568 6.10293C13.06 6.19982 13.0459 6.29689 13.0149 6.38887C12.9838 6.48087 12.9361 6.56694 12.8732 6.64161C12.8102 6.71633 12.7329 6.77845 12.6449 6.8229C12.5567 6.86741 12.4601 6.89294 12.3608 6.89694C12.2615 6.90095 12.1631 6.88328 12.0715 6.84574C11.983 6.80943 11.9035 6.75562 11.8364 6.68867C11.5373 6.41501 11.1936 6.21352 10.8273 6.09323V8.73072C12.3766 9.3131 13.3391 10.3776 13.3006 11.7423C13.2993 12.6415 12.9041 13.2996 12.3589 13.7444C11.8999 14.1187 11.3392 14.3397 10.8203 14.444V14.9537C10.8203 15.1492 10.7501 15.3419 10.6174 15.4883C10.4838 15.6356 10.2959 15.7247 10.0931 15.7247C9.89025 15.7247 9.7024 15.6356 9.56879 15.4883C9.43606 15.3419 9.36587 15.1492 9.36587 14.9537V14.4188C8.97682 14.3262 8.54618 14.1697 8.14738 13.9785C7.66538 13.7474 7.19757 13.4503 6.90335 13.1259C6.77142 12.9805 6.70169 12.789 6.70169 12.5947C6.70169 12.4004 6.77142 12.2088 6.90335 12.0634C7.03616 11.917 7.22292 11.8284 7.42463 11.8284C7.62434 11.8284 7.80939 11.9152 7.94194 12.059C8.08798 12.2085 8.36934 12.3894 8.7165 12.5581C8.92977 12.6618 9.15587 12.755 9.37049 12.8293V9.87918C8.95248 9.75632 8.40722 9.568 7.93768 9.24846C7.36871 8.86125 6.89022 8.26522 6.89022 7.36105C6.89022 5.88967 7.92011 4.7608 9.37049 4.48577V3.89574C9.37049 3.70019 9.44068 3.50746 9.57341 3.36112ZM10.0977 3.7247C10.0739 3.7247 10.0445 3.73485 10.0178 3.76421C9.99032 3.79455 9.97049 3.84144 9.97049 3.89574V5.01142L9.70439 5.04168C8.38346 5.19194 7.49022 6.14051 7.49022 7.36105C7.49022 8.01257 7.82002 8.44263 8.27525 8.75243C8.74209 9.07014 9.31815 9.24364 9.7506 9.36347L9.97049 9.42441V13.6166L9.59781 13.5235C9.24308 13.435 8.828 13.2794 8.45425 13.0978C8.0871 12.9194 7.72781 12.7004 7.50817 12.4736L7.50136 12.4666C7.47553 12.4381 7.44726 12.4284 7.42463 12.4284C7.40199 12.4284 7.3736 12.438 7.34777 12.4665C7.32107 12.4959 7.30169 12.5416 7.30169 12.5947C7.30169 12.6477 7.32107 12.6934 7.34777 12.7228C7.56624 12.9637 7.95404 13.2204 8.40676 13.4374C8.85524 13.6524 9.33546 13.8133 9.71672 13.8789L9.96587 13.9217V14.9537C9.96587 15.008 9.9857 15.0549 10.0132 15.0852C10.0398 15.1145 10.0693 15.1247 10.0931 15.1247C10.1169 15.1247 10.1464 15.1145 10.173 15.0852C10.2005 15.0549 10.2203 15.008 10.2203 14.9537V13.9265L10.4814 13.8923C10.9857 13.8264 11.5491 13.6306 11.9796 13.2794C12.4011 12.9356 12.7006 12.4405 12.7006 11.7379V11.7289C12.732 10.6748 11.9712 9.74676 10.4312 9.22642L10.2273 9.1575V5.34979L10.5804 5.41334C11.1973 5.52436 11.7727 5.81514 12.2475 6.25156L12.2535 6.25707L12.2592 6.26291C12.2724 6.27643 12.2863 6.2853 12.2992 6.2906C12.312 6.29586 12.3246 6.29792 12.3366 6.29743C12.3486 6.29695 12.3614 6.29386 12.3745 6.28726C12.3877 6.2806 12.4016 6.27012 12.4144 6.2549C12.4273 6.23962 12.4386 6.22016 12.4464 6.19707C12.4542 6.17397 12.458 6.14865 12.4571 6.12284C12.4563 6.09702 12.4508 6.07235 12.4417 6.05043C12.433 6.02958 12.4216 6.01238 12.4091 5.99906C11.8667 5.47155 11.1954 5.14198 10.4858 5.04869L10.225 5.01438V3.89574C10.225 3.84144 10.2051 3.79455 10.1776 3.76421C10.151 3.73485 10.1215 3.7247 10.0977 3.7247ZM9.9728 5.3359V9.09275L9.58527 8.97454C9.23607 8.86802 8.79586 8.71663 8.43955 8.48163C8.08135 8.2454 7.75624 7.88796 7.75624 7.36614C7.75624 6.16757 8.72483 5.55558 9.62079 5.39786L9.9728 5.3359ZM9.3728 6.07876C8.78909 6.27903 8.35624 6.71014 8.35624 7.36614C8.35624 7.60053 8.493 7.79815 8.76988 7.98075C8.94501 8.09625 9.15538 8.19098 9.3728 8.27144V6.07876ZM10.2273 9.49065L10.638 9.65386C11.4173 9.96347 12.4413 10.5993 12.4438 11.7666C12.4609 12.4084 12.1369 12.8371 11.7408 13.1068C11.3572 13.368 10.8975 13.4888 10.5847 13.5498L10.5302 13.2707H10.2273V9.49065ZM10.8273 12.8731V10.4008C11.4006 10.7075 11.8438 11.1527 11.8438 11.771L11.8439 11.7796C11.8554 12.1743 11.6718 12.4279 11.4031 12.6108C11.2298 12.7289 11.0256 12.8128 10.8273 12.8731Z" fill="#0A3040"/>
</svg>
