<svg width="35" height="35" viewBox="0 0 35 35" fill="none" xmlns="http://www.w3.org/2000/svg">
<path fill-rule="evenodd" clip-rule="evenodd" d="M24.1283 26.5869H26.0908V13.7524C26.0908 12.8151 26.8506 12.0553 27.7879 12.0553C28.7251 12.0553 29.485 12.8151 29.485 13.7524V27.4354C29.485 28.8413 28.3452 29.9811 26.9393 29.9811H8.55541C7.14949 29.9811 6.00977 28.8413 6.00977 27.4354V13.4344C6.00977 12.4971 6.76958 11.7373 7.70686 11.7373C8.64414 11.7373 9.40395 12.4971 9.40395 13.4344V26.5869H14.5821V19.1621C14.5821 18.0491 15.4844 17.1468 16.5974 17.1468H22.113C23.226 17.1468 24.1283 18.0491 24.1283 19.1621V26.5869ZM17.7644 20.3288V25.6322H20.9465V20.3288H17.7644Z" fill="#0A3040"/>
<path d="M18.0348 8.00166L30.0937 18.1568C31.0795 18.987 32.5516 18.8608 33.3817 17.875C34.2119 16.8893 34.0857 15.4172 33.1 14.587L20.9043 4.31662C19.2443 2.91869 16.8185 2.92035 15.1604 4.32057L3.00084 14.5891C2.0162 15.4206 1.89207 16.8929 2.72357 17.8775C3.55508 18.8621 5.02735 18.9863 6.01198 18.1548L18.0348 8.00166Z" fill="#0A3040"/>
</svg>
