<svg width="24" height="25" viewBox="0 0 24 25" fill="none" xmlns="http://www.w3.org/2000/svg">
<path fill-rule="evenodd" clip-rule="evenodd" d="M12 5.9248C8.41015 5.9248 5.5 8.83495 5.5 12.4248C5.5 16.0147 8.41015 18.9248 12 18.9248C15.5899 18.9248 18.5 16.0147 18.5 12.4248C18.5 8.83495 15.5899 5.9248 12 5.9248ZM3.5 12.4248C3.5 7.73038 7.30558 3.9248 12 3.9248C16.6944 3.9248 20.5 7.73038 20.5 12.4248C20.5 17.1192 16.6944 20.9248 12 20.9248C7.30558 20.9248 3.5 17.1192 3.5 12.4248Z" fill="#0A3040"/>
<path fill-rule="evenodd" clip-rule="evenodd" d="M12 11.4248C12.5523 11.4248 13 11.8725 13 12.4248V15.4248C13 15.9771 12.5523 16.4248 12 16.4248C11.4477 16.4248 11 15.9771 11 15.4248V12.4248C11 11.8725 11.4477 11.4248 12 11.4248Z" fill="#0A3040"/>
<path fill-rule="evenodd" clip-rule="evenodd" d="M11 9.4248C11 8.87252 11.4477 8.4248 12 8.4248H12.0058C12.5581 8.4248 13.0058 8.87252 13.0058 9.4248C13.0058 9.97709 12.5581 10.4248 12.0058 10.4248H12C11.4477 10.4248 11 9.97709 11 9.4248Z" fill="#0A3040"/>
</svg>
