<svg width="49" height="49" viewBox="0 0 49 49" fill="none" xmlns="http://www.w3.org/2000/svg">
<circle cx="24.5" cy="24.8469" r="22.5" stroke="#0A3040" stroke-width="3"/>
<path d="M24.5 14.336C22.4211 14.336 20.3889 14.9524 18.6604 16.1074C16.9319 17.2623 15.5847 18.9039 14.7891 20.8245C13.9936 22.7452 13.7854 24.8586 14.191 26.8975C14.5966 28.9364 15.5976 30.8093 17.0676 32.2793C18.5376 33.7492 20.4105 34.7503 22.4494 35.1559C24.4883 35.5615 26.6017 35.3533 28.5224 34.5578C30.443 33.7622 32.0846 32.415 33.2395 30.6865C34.3945 28.958 35.0109 26.9258 35.0109 24.8469C35.0103 22.0594 33.9027 19.3863 31.9317 17.4152C29.9606 15.4442 27.2875 14.3366 24.5 14.336ZM24.5 34.263C22.6377 34.263 20.8171 33.7108 19.2687 32.6761C17.7202 31.6415 16.5133 30.1709 15.8006 28.4503C15.088 26.7297 14.9015 24.8365 15.2648 23.0099C15.6281 21.1834 16.5249 19.5056 17.8418 18.1887C19.1587 16.8718 20.8365 15.9751 22.663 15.6117C24.4895 15.2484 26.3828 15.4349 28.1034 16.1476C29.8239 16.8602 31.2945 18.0671 32.3292 19.6156C33.3638 21.1641 33.9161 22.9846 33.9161 24.8469C33.9123 27.3431 32.9191 29.7359 31.154 31.5009C29.389 33.266 26.9961 34.2593 24.5 34.263Z" fill="#0A3040"/>
<path d="M25.1167 24.2833V20.5069C25.769 20.6243 26.3809 20.9323 26.8887 21.399C26.9363 21.4478 26.9922 21.4858 27.0531 21.5108C27.1141 21.5357 27.1789 21.5473 27.2439 21.5446C27.3089 21.542 27.3728 21.5253 27.4319 21.4955C27.491 21.4656 27.5443 21.4232 27.5885 21.3707C27.6328 21.3182 27.6673 21.2566 27.6899 21.1894C27.7126 21.1221 27.7231 21.0507 27.7207 20.979C27.7183 20.9074 27.7031 20.8369 27.6761 20.7717C27.649 20.7065 27.6106 20.6479 27.5629 20.5991C26.8772 19.9305 26.0229 19.5083 25.114 19.3888V18.3897C25.114 18.2438 25.0614 18.1038 24.9678 18.0007C24.8743 17.8975 24.7474 17.8395 24.615 17.8395C24.4827 17.8395 24.3558 17.8975 24.2622 18.0007C24.1686 18.1038 24.1161 18.2438 24.1161 18.3897V19.3799C22.4169 19.5732 21.2194 20.8132 21.2194 22.4367C21.2194 24.2536 23.1074 24.8335 24.1161 25.113V29.2939C23.342 29.1006 22.2686 28.604 21.8424 28.1639C21.7498 28.0618 21.6242 28.0044 21.4932 28.0044C21.3622 28.0044 21.2365 28.0618 21.1439 28.1639C21.0513 28.266 20.9992 28.4045 20.9992 28.549C20.9992 28.6934 21.0513 28.8319 21.1439 28.9341C21.7426 29.5942 23.1424 30.2276 24.1107 30.3941V31.304C24.1107 31.4499 24.1632 31.5898 24.2568 31.693C24.3504 31.7962 24.4773 31.8541 24.6096 31.8541C24.742 31.8541 24.8689 31.7962 24.9624 31.693C25.056 31.5898 25.1086 31.4499 25.1086 31.304V30.4119C26.3816 30.2454 28.0052 29.4217 28.0052 27.5484C28.0484 26.1002 26.9911 24.9167 25.1167 24.2833ZM24.1188 23.986C23.3096 23.7392 22.2308 23.3258 22.2308 22.4427C22.2308 21.286 23.1559 20.6585 24.1188 20.489V23.986ZM25.1167 29.3385V25.4401C26.0148 25.7969 27.0046 26.46 27.0046 27.587C27.0397 28.8002 25.8179 29.1838 25.1167 29.3206V29.3385Z" fill="#0A3040"/>
<path fill-rule="evenodd" clip-rule="evenodd" d="M18.4658 15.8161C20.2519 14.6226 22.3518 13.9856 24.5 13.9856C27.3804 13.9862 30.1427 15.1308 32.1794 17.1675C34.2161 19.2042 35.3606 21.9664 35.3613 24.8468C35.3613 26.995 34.7243 29.095 33.5308 30.8811C32.3374 32.6673 30.6411 34.0594 28.6564 34.8814C26.6718 35.7035 24.4879 35.9186 22.3811 35.4995C20.2742 35.0804 18.3389 34.046 16.8199 32.527C15.3009 31.008 14.2665 29.0727 13.8474 26.9658C13.4283 24.859 13.6434 22.6751 14.4654 20.6905C15.2875 18.7058 16.6796 17.0095 18.4658 15.8161ZM24.4999 14.6863C22.4904 14.6863 20.5259 15.2822 18.8551 16.3987C17.1842 17.5152 15.8819 19.102 15.1128 20.9586C14.3438 22.8152 14.1426 24.8582 14.5346 26.8291C14.9267 28.8001 15.8944 30.6105 17.3154 32.0315C18.7364 33.4525 20.5468 34.4202 22.5178 34.8123C24.4887 35.2043 26.5317 35.0031 28.3883 34.2341C30.2449 33.465 31.8317 32.1627 32.9482 30.4918C34.0646 28.8209 34.6606 26.8565 34.6606 24.847M24.4999 14.6863C27.1945 14.687 29.7786 15.7576 31.6839 17.663C33.5893 19.5683 34.6599 22.1524 34.6606 24.847M27.9693 16.4713C26.3127 15.7851 24.4899 15.6056 22.7313 15.9554C20.9728 16.3052 19.3574 17.1686 18.0895 18.4365C16.8217 19.7043 15.9582 21.3197 15.6084 23.0783C15.2586 24.8368 15.4382 26.6597 16.1243 28.3162C16.8105 29.9728 17.9725 31.3886 19.4633 32.3848C20.954 33.3809 22.7066 33.9125 24.4995 33.9126C26.9029 33.909 29.2068 32.9527 30.9063 31.2532C32.6058 29.5537 33.5621 27.2498 33.5657 24.8464C33.5656 23.0535 33.0339 21.301 32.0379 19.8102C31.0417 18.3194 29.6258 17.1574 27.9693 16.4713ZM22.5946 15.2681C24.4892 14.8913 26.4529 15.0847 28.2375 15.8239C30.022 16.5631 31.5474 17.8149 32.6205 19.4209C33.6937 21.027 34.2665 22.9153 34.2665 24.8469C34.2626 27.4358 33.2324 29.9181 31.4018 31.7487C29.5712 33.5793 27.0894 34.6095 24.5005 34.6134C22.5689 34.6134 20.6801 34.0406 19.074 32.9674C17.4679 31.8943 16.2161 30.369 15.4769 28.5844C14.7377 26.7998 14.5443 24.8361 14.9212 22.9416C15.298 21.0471 16.2282 19.3068 17.5941 17.941C18.9599 16.5751 20.7001 15.6449 22.5946 15.2681ZM24.0027 17.7653C24.1587 17.5932 24.3781 17.4892 24.615 17.4892C24.8519 17.4892 25.0713 17.5932 25.2274 17.7653C25.3824 17.9362 25.4643 18.1613 25.4643 18.3897V19.0923C26.3364 19.269 27.1466 19.7038 27.8075 20.3482L27.8137 20.3543C27.8935 20.436 27.9561 20.5326 27.9997 20.6374C28.0432 20.7422 28.0671 20.8542 28.0709 20.9674C28.0746 21.0806 28.0582 21.1939 28.0219 21.3014C27.9857 21.4088 27.9299 21.5093 27.8564 21.5965C27.7829 21.6838 27.6926 21.7563 27.5898 21.8082C27.4868 21.8602 27.374 21.89 27.258 21.8947C27.1421 21.8994 27.0271 21.8788 26.9202 21.8349C26.8168 21.7925 26.7239 21.7297 26.6456 21.6515C26.2963 21.3319 25.8949 21.0966 25.467 20.9561V24.0364C27.2765 24.7165 28.4006 25.9598 28.3556 27.5535C28.3541 28.6037 27.8925 29.3723 27.2558 29.8917C26.7198 30.3289 26.0649 30.587 25.459 30.7088V31.304C25.459 31.5324 25.377 31.7575 25.222 31.9284C25.0659 32.1004 24.8465 32.2045 24.6096 32.2045C24.3727 32.2045 24.1533 32.1004 23.9973 31.9284C23.8423 31.7575 23.7603 31.5324 23.7603 31.304V30.6794C23.3059 30.5712 22.803 30.3884 22.3373 30.1651C21.7743 29.8952 21.228 29.5483 20.8844 29.1694C20.7303 28.9996 20.6489 28.7759 20.6489 28.549C20.6489 28.3221 20.7303 28.0984 20.8844 27.9285C21.0395 27.7575 21.2576 27.654 21.4932 27.654C21.7264 27.654 21.9425 27.7555 22.0973 27.9235C22.2679 28.098 22.5965 28.3093 23.0019 28.5063C23.251 28.6274 23.5151 28.7363 23.7657 28.823V25.3776C23.2775 25.2341 22.6407 25.0142 22.0924 24.641C21.4279 24.1888 20.869 23.4927 20.869 22.4367C20.869 20.7183 22.0718 19.4 23.7657 19.0788V18.3897C23.7657 18.1613 23.8477 17.9362 24.0027 17.7653ZM24.615 18.1899C24.5873 18.1899 24.5528 18.2018 24.5217 18.2361C24.4896 18.2715 24.4664 18.3262 24.4664 18.3897V19.6926L24.1557 19.728C22.613 19.9035 21.5698 21.0113 21.5698 22.4367C21.5698 23.1976 21.9549 23.6999 22.4866 24.0617C23.0318 24.4328 23.7046 24.6354 24.2096 24.7753L24.4664 24.8465V29.7425L24.0312 29.6338C23.6169 29.5304 23.1321 29.3487 22.6956 29.1366C22.2669 28.9282 21.8472 28.6725 21.5907 28.4076L21.5828 28.3994C21.5526 28.3662 21.5196 28.3548 21.4932 28.3548C21.4667 28.3548 21.4336 28.366 21.4034 28.3993C21.3722 28.4337 21.3496 28.487 21.3496 28.549C21.3496 28.6109 21.3722 28.6643 21.4034 28.6987C21.6585 28.98 22.1115 29.2798 22.6402 29.5333C23.1639 29.7844 23.7248 29.9722 24.1701 30.0488L24.461 30.0988V31.304C24.461 31.3674 24.4842 31.4222 24.5163 31.4576C24.5474 31.4919 24.5819 31.5038 24.6096 31.5038C24.6374 31.5038 24.6718 31.4919 24.7029 31.4576C24.7351 31.4222 24.7582 31.3674 24.7582 31.304V30.1044L25.0631 30.0645C25.6521 29.9875 26.3101 29.7588 26.8128 29.3487C27.3051 28.9472 27.6549 28.3689 27.6549 27.5484V27.5379C27.6916 26.3068 26.803 25.223 25.0045 24.6153L24.7663 24.5348V20.0878L25.1787 20.162C25.8992 20.2917 26.5712 20.6313 27.1257 21.141L27.1327 21.1474L27.1394 21.1542C27.1548 21.17 27.171 21.1804 27.1861 21.1866C27.2011 21.1927 27.2158 21.1951 27.2298 21.1946C27.2438 21.194 27.2588 21.1904 27.2741 21.1827C27.2895 21.1749 27.3057 21.1627 27.3207 21.1449C27.3357 21.127 27.3489 21.1043 27.358 21.0774C27.3671 21.0504 27.3715 21.0208 27.3705 20.9907C27.3695 20.9605 27.3631 20.9317 27.3525 20.9061C27.3424 20.8817 27.329 20.8617 27.3144 20.8461C26.6809 20.23 25.897 19.8451 25.0683 19.7362L24.7636 19.6961V18.3897C24.7636 18.3262 24.7405 18.2715 24.7083 18.2361C24.6772 18.2018 24.6428 18.1899 24.615 18.1899ZM24.4691 20.0716V24.4592L24.0165 24.3211C23.6087 24.1967 23.0946 24.0199 22.6785 23.7455C22.2601 23.4696 21.8804 23.0521 21.8804 22.4427C21.8804 21.0429 23.0116 20.3282 24.058 20.144L24.4691 20.0716ZM23.7684 20.9392C23.0867 21.1731 22.5812 21.6766 22.5812 22.4427C22.5812 22.7164 22.7409 22.9472 23.0643 23.1605C23.2688 23.2954 23.5145 23.406 23.7684 23.5V20.9392ZM24.7663 24.9239L25.246 25.1145C26.1561 25.4761 27.352 26.2187 27.355 27.582C27.3749 28.3315 26.9966 28.8321 26.5339 29.1471C26.0859 29.4521 25.549 29.5933 25.1838 29.6645L25.1202 29.3385H24.7663V24.9239ZM25.467 28.8742V25.9868C26.1367 26.345 26.6543 26.865 26.6543 27.587L26.6544 27.5971C26.6677 28.058 26.4534 28.3542 26.1396 28.5679C25.9371 28.7057 25.6987 28.8038 25.467 28.8742Z" fill="#0A3040"/>
</svg>
